<svg width="60" height="60" viewBox="0 0 60 60" fill="none" xmlns="http://www.w3.org/2000/svg">
<g clip-path="url(#clip0_2615_9)">
<circle cx="30" cy="30" r="19.5" stroke="black"/>
<g clip-path="url(#clip1_2615_9)">
<path d="M28.9413 37.374V28.6116H28.8577L25.6718 37.374H23.4417L20.2559 28.6116H20.1722V37.374H16.5337V22.2446H21.3468L24.5143 31.2403H24.5991L27.7678 22.2446H32.5799V37.374H28.9413ZM40.2087 31.6337C41.6836 30.8823 42.5053 29.1651 42.5053 27.3773C42.5053 24.1408 40.5605 22.2446 36.7719 22.2446H34.6426V25.5176H36.3696C37.4927 25.5176 38.2479 26.322 38.2479 27.4491C38.2479 28.5927 37.5259 29.3617 36.3696 29.3617H34.6426V32.2956H36.0006L38.2456 37.374H42.9075L40.2087 31.6337Z" fill="black"/>
</g>
<g clip-path="url(#clip2_2615_9)">
<path d="M31.6091 60H28.3909C27.4186 60 26.5745 59.3086 26.385 58.3555L26.0563 56.715C26.0005 56.4395 25.7768 56.2309 25.4864 56.1805C23.8718 55.9064 22.2968 55.4905 20.8036 54.9437C20.5241 54.8414 20.2282 54.9109 20.0441 55.1209L18.9532 56.3632C18.3109 57.0914 17.235 57.27 16.3937 56.7845L13.6063 55.1755C12.765 54.69 12.3805 53.67 12.6914 52.7482L13.2287 51.1609C13.3187 50.8964 13.23 50.6032 13.0023 50.4137C11.7655 49.3827 10.6159 48.2332 9.58365 46.995C9.39413 46.7686 9.10087 46.68 8.8377 46.77L7.25045 47.3073C6.32863 47.6195 5.30864 47.2336 4.82318 46.3923L3.21409 43.605C2.72863 42.7636 2.90455 41.6877 3.63545 41.0455L4.87773 39.9545C5.08773 39.7705 5.15727 39.4718 5.055 39.195C4.50818 37.7018 4.09091 36.1268 3.81818 34.5123C3.76909 34.2205 3.55909 33.9968 3.28364 33.9423L1.64318 33.6136C0.691364 33.4255 0 32.5814 0 31.6091V28.3909C0 27.4186 0.691363 26.5745 1.64455 26.385L3.285 26.0563C3.55909 26.0018 3.76909 25.7782 3.81818 25.4864C4.09227 23.8718 4.50818 22.2968 5.055 20.8036C5.15727 20.5255 5.08637 20.2282 4.87773 20.0441L3.63545 18.9532C2.90591 18.3109 2.72863 17.235 3.21409 16.3937L4.82318 13.6063C5.30864 12.765 6.33136 12.3805 7.25045 12.6914L8.8377 13.2287C9.1023 13.3187 9.39548 13.23 9.58365 13.0036C10.6145 11.7655 11.7655 10.6159 13.0023 9.585C13.2286 9.39682 13.3173 9.10365 13.2273 8.83912L12.69 7.25182C12.3777 6.33137 12.7636 5.31 13.605 4.82455L16.3923 3.21545C17.2323 2.73 18.3095 2.90591 18.9518 3.63682L20.0427 4.87909C20.2282 5.08909 20.5268 5.16 20.8023 5.05636C22.2955 4.50955 23.8705 4.09227 25.4864 3.81818C25.7782 3.76909 26.0018 3.55909 26.0563 3.28364L26.385 1.64318C26.5745 0.691364 27.4186 0 28.3909 0H31.6091C32.5814 0 33.4255 0.691363 33.615 1.64455L33.9437 3.285C33.9982 3.55909 34.2218 3.76909 34.5136 3.81818C36.1295 4.09227 37.7045 4.50818 39.1963 5.05636C39.4705 5.15455 39.7705 5.08773 39.9559 4.87773L41.0468 3.63545C41.6877 2.90591 42.7636 2.72727 43.6063 3.21409L46.3937 4.82318C47.235 5.30864 47.6195 6.32863 47.3087 7.25045L46.7714 8.8377C46.6814 9.1023 46.77 9.39548 46.9964 9.58365C48.2345 10.6145 49.3841 11.7655 50.415 13.0023C50.6045 13.2286 50.895 13.3159 51.1609 13.2273L52.7482 12.69C53.67 12.3764 54.69 12.7636 55.1755 13.605L56.7845 16.3923C57.27 17.2336 57.0941 18.3095 56.3632 18.9518L55.1209 20.0427C54.9109 20.2268 54.8414 20.5255 54.9437 20.8023C55.4905 22.2955 55.9077 23.8705 56.1805 25.485C56.2295 25.7768 56.4395 26.0005 56.715 26.055L58.3555 26.3836C59.3086 26.5759 60 27.4186 60 28.3909V31.6091C60 32.5814 59.3086 33.4255 58.3555 33.615L56.715 33.9437C56.4395 33.9995 56.2309 34.2232 56.1805 34.5136C55.9064 36.1282 55.4905 37.7032 54.9437 39.1963C54.8414 39.4745 54.9123 39.7718 55.1209 39.9559L56.3632 41.0468C57.0927 41.6891 57.27 42.765 56.7845 43.6063L55.1755 46.3937C54.69 47.235 53.6673 47.6195 52.7482 47.3087L51.1609 46.7714C50.8964 46.6814 50.6045 46.7714 50.4137 46.9977C49.3827 48.2345 48.2332 49.3841 46.995 50.4164C46.7686 50.6045 46.68 50.8977 46.77 51.1623L47.3073 52.7495C47.6195 53.67 47.2336 54.6913 46.3923 55.1768L43.605 56.7859C42.7636 57.2714 41.6863 57.0941 41.0455 56.3645L39.9545 55.1223C39.7718 54.9136 39.4745 54.8441 39.195 54.945C37.7018 55.4918 36.1268 55.9091 34.5123 56.1818C34.2205 56.2309 33.9968 56.4409 33.9423 56.7164L33.6136 58.3568C33.4255 59.3086 32.5814 60 31.6091 60ZM20.5432 53.5336C20.7859 53.5336 21.0327 53.5759 21.2727 53.6645C22.6868 54.1827 24.1813 54.5768 25.7127 54.836C26.5663 54.9805 27.225 55.6132 27.3927 56.4477L27.7213 58.0882C27.7855 58.4059 28.0663 58.6364 28.3909 58.6364H31.6091C31.9337 58.6364 32.2145 58.4059 32.2773 58.0895L32.6059 56.4477C32.7736 55.6132 33.4323 54.9805 34.2859 54.836C35.8187 54.5768 37.3118 54.1827 38.7273 53.6645C39.5359 53.3659 40.4209 53.5855 40.98 54.2223L42.0709 55.4645C42.285 55.7059 42.6437 55.7645 42.9245 55.605L45.7118 53.9959C45.9927 53.8336 46.1209 53.4941 46.0173 53.1873L45.48 51.6C45.2086 50.7982 45.4609 49.9227 46.1236 49.3691C47.2977 48.39 48.39 47.2991 49.3677 46.125C49.92 45.4609 50.7968 45.2086 51.5987 45.48L53.1859 46.0173C53.4927 46.1195 53.8336 45.9914 53.9945 45.7118L55.6036 42.9245C55.7659 42.6437 55.7073 42.285 55.4632 42.0709L54.2209 40.98C53.5855 40.4209 53.3659 39.5359 53.6632 38.7273C54.1814 37.3132 54.5755 35.8187 54.8345 34.2873C54.9791 33.4337 55.6118 32.775 56.4464 32.6073L58.0868 32.2787C58.4059 32.2145 58.6364 31.9337 58.6364 31.6091V28.3909C58.6364 28.0663 58.4059 27.7855 58.0895 27.7227L56.4491 27.3941C55.6145 27.2264 54.9832 26.5677 54.8373 25.7141C54.5782 24.1813 54.1841 22.6882 53.6659 21.2727C53.3686 20.4641 53.5868 19.5791 54.2237 19.02L55.4659 17.9291C55.7086 17.715 55.7686 17.3563 55.6063 17.0755L53.9973 14.2882C53.835 14.0073 53.4955 13.8805 53.1886 13.9827L51.6014 14.52C50.7995 14.7927 49.9227 14.5405 49.3705 13.875C48.3927 12.7009 47.3005 11.61 46.1277 10.6323C45.4637 10.08 45.2114 9.20453 45.4827 8.40135L46.02 6.81409C46.1237 6.50727 45.9955 6.16636 45.7145 6.00545L42.9273 4.39637C42.6477 4.23409 42.2877 4.29273 42.0737 4.53682L40.9827 5.77909C40.425 6.41591 39.54 6.63409 38.73 6.33818C37.3159 5.81863 35.8214 5.42455 34.2887 5.16545C33.435 5.02091 32.7763 4.38818 32.6086 3.55364L32.2773 1.91182C32.2145 1.59409 31.9337 1.36363 31.6091 1.36363H28.3909C28.0663 1.36363 27.7855 1.59409 27.7227 1.91045L27.3941 3.55227C27.2264 4.38682 26.5677 5.01955 25.7141 5.16409C24.18 5.42318 22.6868 5.81727 21.2741 6.33682C20.4668 6.63409 19.5805 6.41591 19.0213 5.77909L17.9305 4.53682C17.7164 4.29409 17.3564 4.23273 17.0768 4.39637L14.2895 6.00545C14.0087 6.16773 13.8805 6.50727 13.9841 6.81409L14.5213 8.40135C14.7927 9.20453 14.5405 10.08 13.8764 10.6323C12.7023 11.61 11.6113 12.7023 10.6336 13.875C10.0827 14.5391 9.20452 14.7914 8.4027 14.52L6.81545 13.9827C6.50591 13.8791 6.16773 14.0073 6.00682 14.2882L4.39773 17.0755C4.23545 17.3563 4.29409 17.715 4.53818 17.9291L5.78045 19.02C6.41591 19.5791 6.63545 20.4641 6.33818 21.2727C5.82 22.6868 5.42591 24.1813 5.16682 25.7127C5.02227 26.5663 4.38955 27.225 3.555 27.3927L1.91182 27.7227C1.59409 27.7855 1.36363 28.0663 1.36363 28.3909V31.6091C1.36363 31.9337 1.59409 32.2145 1.91045 32.2773L3.55227 32.6059C4.38682 32.7736 5.01955 33.4323 5.16409 34.2859C5.42318 35.8187 5.81727 37.3118 6.33545 38.7273C6.63273 39.5359 6.41455 40.4209 5.77773 40.98L4.53545 42.0709C4.29273 42.285 4.23273 42.6437 4.395 42.9245L6.00409 45.7118C6.16637 45.9927 6.50455 46.1195 6.81273 46.0173L8.4 45.48C9.20047 45.2086 10.0773 45.4609 10.6309 46.1236C11.61 47.2977 12.7009 48.39 13.875 49.3677C14.5391 49.9214 14.7914 50.7968 14.52 51.5987L13.9827 53.1859C13.8791 53.4927 14.0073 53.8336 14.2882 53.9945L17.0755 55.6036C17.355 55.7659 17.715 55.7073 17.9291 55.4632L19.02 54.2209C19.4127 53.775 19.9677 53.5336 20.5432 53.5336Z" fill="black"/>
<path d="M29.8774 52.1478C42.177 52.1478 52.1478 42.177 52.1478 29.8774C52.1478 17.5777 42.177 7.60693 29.8774 7.60693C17.5777 7.60693 7.60693 17.5777 7.60693 29.8774C7.60693 42.177 17.5777 52.1478 29.8774 52.1478Z" stroke="black" stroke-width="2"/>
</g>
</g>
<defs>
<clipPath id="clip0_2615_9">
<rect width="60" height="60" fill="white"/>
</clipPath>
<clipPath id="clip1_2615_9">
<rect width="27" height="16" fill="white" transform="translate(16 22)"/>
</clipPath>
<clipPath id="clip2_2615_9">
<rect width="60" height="60" fill="white"/>
</clipPath>
</defs>
</svg>
